<svg id="visual" viewBox="0 0 900 600" width="900" height="600" xmlns="http://www.w3.org/2000/svg" xmlns:xlink="http://www.w3.org/1999/xlink" version="1.1"><rect x="0" y="0" width="900" height="600" fill="#140021"></rect><path d="M0 370L129 370L129 306L257 306L257 334L386 334L386 336L514 336L514 354L643 354L643 336L771 336L771 269L900 269L900 275L900 601L900 601L771 601L771 601L643 601L643 601L514 601L514 601L386 601L386 601L257 601L257 601L129 601L129 601L0 601Z" fill="#9900ff"></path><path d="M0 416L129 416L129 368L257 368L257 354L386 354L386 362L514 362L514 372L643 372L643 457L771 457L771 438L900 438L900 423L900 601L900 601L771 601L771 601L643 601L643 601L514 601L514 601L386 601L386 601L257 601L257 601L129 601L129 601L0 601Z" fill="#7700c6"></path><path d="M0 533L129 533L129 499L257 499L257 456L386 456L386 512L514 512L514 526L643 526L643 540L771 540L771 477L900 477L900 528L900 601L900 601L771 601L771 601L643 601L643 601L514 601L514 601L386 601L386 601L257 601L257 601L129 601L129 601L0 601Z" fill="#560090"></path></svg>